<?xml version="1.0" standalone="no"?>
<!DOCTYPE svg PUBLIC "-//W3C//DTD SVG 20010904//EN"
 "http://www.w3.org/TR/2001/REC-SVG-20010904/DTD/svg10.dtd">
<svg version="1.0" xmlns="http://www.w3.org/2000/svg"
 width="225.000000pt" height="225.000000pt" viewBox="0 0 225.000000 225.000000"
 preserveAspectRatio="xMidYMid meet">

<g transform="translate(0.000000,225.000000) scale(0.100000,-0.100000)"
fill="#000000" stroke="none">
<path d="M700 1623 c-38 -14 -51 -60 -24 -87 13 -14 51 -16 260 -16 l244 0 0
-510 0 -510 -243 0 c-224 0 -245 -2 -260 -18 -22 -25 -21 -48 3 -72 19 -19 33
-20 299 -20 241 0 282 2 295 16 14 14 16 82 16 604 l0 589 -22 15 c-19 14 -63
16 -288 15 -146 0 -272 -3 -280 -6z"/>
<path d="M1332 1508 c-17 -17 -15 -64 4 -82 13 -13 45 -16 193 -16 160 0 180
2 194 18 21 23 22 56 1 76 -13 13 -45 16 -198 16 -128 0 -186 -4 -194 -12z"/>
<path d="M654 1183 c-109 -113 -143 -154 -144 -174 0 -21 32 -60 148 -178 81
-83 155 -151 165 -151 23 0 57 35 57 60 0 11 -50 71 -120 144 l-120 124 120
126 c66 69 120 131 120 138 0 26 -31 58 -57 58 -19 0 -58 -34 -169 -147z"/>
<path d="M1336 1294 c-19 -18 -21 -65 -4 -82 8 -8 66 -12 194 -12 198 0 214 4
214 55 0 48 -29 55 -217 55 -143 0 -174 -3 -187 -16z"/>
<path d="M1332 1078 c-20 -20 -14 -65 10 -82 18 -13 54 -16 188 -16 134 0 170
3 188 16 24 17 30 62 10 82 -17 17 -379 17 -396 0z"/>
<path d="M1338 869 c-25 -14 -24 -75 1 -89 12 -6 93 -10 194 -10 156 0 176 2
190 18 21 23 22 56 1 76 -13 13 -45 16 -192 16 -102 0 -184 -5 -194 -11z"/>
<path d="M1342 654 c-24 -17 -30 -62 -10 -82 17 -17 379 -17 396 0 20 20 14
65 -10 82 -18 13 -54 16 -188 16 -134 0 -170 -3 -188 -16z"/>
</g>
</svg>
